<svg width="714" height="346" viewBox="0 0 714 346" fill="none" xmlns="http://www.w3.org/2000/svg">
<path d="M0.653158 197.031C15.3812 229.501 48.8527 260.011 97.1527 284.992C145.453 309.974 206.584 328.393 273.397 338.098C340.209 347.802 409.94 348.389 474.434 339.79C538.927 331.191 595.517 313.762 637.583 289.541C679.649 265.321 705.452 235.31 711.975 203.019C718.498 170.728 705.47 137.493 674.416 107.2C643.362 76.9071 595.565 50.8093 536.616 31.9593C477.667 13.1093 410.004 2.28643 341.54 0.756558L345.417 59.5271C390.548 60.5355 435.151 67.6699 474.01 80.0957C512.868 92.5214 544.375 109.725 564.846 129.694C585.317 149.663 593.904 171.571 589.605 192.857C585.305 214.143 568.295 233.926 540.566 249.892C512.836 265.858 475.533 277.347 433.019 283.015C390.506 288.683 344.54 288.296 300.497 281.9C256.455 275.503 216.158 263.36 184.319 246.893C152.48 230.425 130.416 210.314 120.707 188.91L0.653158 197.031Z" fill="#109BB9"/>
</svg>
